<mxfile host="app.diagrams.net" modified="2024-05-05T06:36:33.050Z" agent="Mozilla/5.0 (X11; Ubuntu; Linux x86_64; rv:125.0) Gecko/20100101 Firefox/125.0" etag="fnV12_W8D0qxpRHJl-FD" version="24.3.1" type="device">
  <diagram name="Page-1" id="hkLLIWvBy92nxcsVuXnp">
    <mxGraphModel dx="1056" dy="610" grid="1" gridSize="10" guides="1" tooltips="1" connect="1" arrows="1" fold="1" page="1" pageScale="1" pageWidth="850" pageHeight="1100" math="0" shadow="0">
      <root>
        <mxCell id="0" />
        <mxCell id="1" parent="0" />
        <mxCell id="PYriCE-h4d1kvKqQUaSR-1" value="Tag" style="text;html=1;align=center;verticalAlign=middle;whiteSpace=wrap;rounded=0;" parent="1" vertex="1">
          <mxGeometry x="370" y="570" width="60" height="30" as="geometry" />
        </mxCell>
        <mxCell id="PYriCE-h4d1kvKqQUaSR-2" value="Anchor" style="text;html=1;align=center;verticalAlign=middle;whiteSpace=wrap;rounded=0;" parent="1" vertex="1">
          <mxGeometry x="610" y="570" width="60" height="30" as="geometry" />
        </mxCell>
        <mxCell id="PYriCE-h4d1kvKqQUaSR-3" value="" style="endArrow=none;html=1;rounded=0;" parent="1" edge="1">
          <mxGeometry width="50" height="50" relative="1" as="geometry">
            <mxPoint x="400" y="830" as="sourcePoint" />
            <mxPoint x="400" y="600" as="targetPoint" />
          </mxGeometry>
        </mxCell>
        <mxCell id="PYriCE-h4d1kvKqQUaSR-4" value="" style="endArrow=none;html=1;rounded=0;" parent="1" edge="1">
          <mxGeometry width="50" height="50" relative="1" as="geometry">
            <mxPoint x="640" y="830" as="sourcePoint" />
            <mxPoint x="640" y="600" as="targetPoint" />
          </mxGeometry>
        </mxCell>
        <mxCell id="PYriCE-h4d1kvKqQUaSR-5" value="" style="endArrow=classicThin;html=1;rounded=0;endFill=1;" parent="1" edge="1">
          <mxGeometry width="50" height="50" relative="1" as="geometry">
            <mxPoint x="400" y="630" as="sourcePoint" />
            <mxPoint x="640" y="660" as="targetPoint" />
          </mxGeometry>
        </mxCell>
        <mxCell id="-4YV-GFCwSD3uPHcHoKi-1" value="Poll" style="edgeLabel;html=1;align=center;verticalAlign=middle;resizable=0;points=[];" parent="PYriCE-h4d1kvKqQUaSR-5" vertex="1" connectable="0">
          <mxGeometry x="-0.1803" relative="1" as="geometry">
            <mxPoint x="22" y="3" as="offset" />
          </mxGeometry>
        </mxCell>
        <mxCell id="PYriCE-h4d1kvKqQUaSR-6" value="" style="endArrow=none;dashed=1;html=1;strokeWidth=2;rounded=0;" parent="1" edge="1">
          <mxGeometry width="50" height="50" relative="1" as="geometry">
            <mxPoint x="360" y="630" as="sourcePoint" />
            <mxPoint x="680" y="630" as="targetPoint" />
          </mxGeometry>
        </mxCell>
        <mxCell id="PYriCE-h4d1kvKqQUaSR-7" value="" style="endArrow=none;dashed=1;html=1;strokeWidth=2;rounded=0;" parent="1" edge="1">
          <mxGeometry width="50" height="50" relative="1" as="geometry">
            <mxPoint x="640" y="659.8" as="sourcePoint" />
            <mxPoint x="680" y="659.8" as="targetPoint" />
          </mxGeometry>
        </mxCell>
        <mxCell id="PYriCE-h4d1kvKqQUaSR-9" value="" style="endArrow=classicThin;startArrow=classicThin;html=1;rounded=0;startFill=1;endFill=1;" parent="1" edge="1">
          <mxGeometry width="50" height="50" relative="1" as="geometry">
            <mxPoint x="660" y="660" as="sourcePoint" />
            <mxPoint x="660" y="630" as="targetPoint" />
          </mxGeometry>
        </mxCell>
        <mxCell id="PYriCE-h4d1kvKqQUaSR-11" value="t&lt;sub&gt;roundB&lt;/sub&gt;" style="text;html=1;align=center;verticalAlign=middle;whiteSpace=wrap;rounded=0;" parent="1" vertex="1">
          <mxGeometry x="657" y="736" width="60" height="30" as="geometry" />
        </mxCell>
        <mxCell id="PYriCE-h4d1kvKqQUaSR-12" value="" style="endArrow=classicThin;html=1;rounded=0;endFill=1;" parent="1" edge="1">
          <mxGeometry width="50" height="50" relative="1" as="geometry">
            <mxPoint x="640" y="700" as="sourcePoint" />
            <mxPoint x="400" y="730" as="targetPoint" />
          </mxGeometry>
        </mxCell>
        <mxCell id="-4YV-GFCwSD3uPHcHoKi-2" value="Poll ACK" style="edgeLabel;html=1;align=center;verticalAlign=middle;resizable=0;points=[];" parent="PYriCE-h4d1kvKqQUaSR-12" vertex="1" connectable="0">
          <mxGeometry x="-0.0035" relative="1" as="geometry">
            <mxPoint as="offset" />
          </mxGeometry>
        </mxCell>
        <mxCell id="PYriCE-h4d1kvKqQUaSR-13" value="" style="endArrow=none;dashed=1;html=1;strokeWidth=2;rounded=0;" parent="1" edge="1">
          <mxGeometry width="50" height="50" relative="1" as="geometry">
            <mxPoint x="640" y="700" as="sourcePoint" />
            <mxPoint x="690" y="700" as="targetPoint" />
          </mxGeometry>
        </mxCell>
        <mxCell id="PYriCE-h4d1kvKqQUaSR-14" value="" style="endArrow=none;dashed=1;html=1;strokeWidth=2;rounded=0;" parent="1" edge="1">
          <mxGeometry width="50" height="50" relative="1" as="geometry">
            <mxPoint x="360" y="730" as="sourcePoint" />
            <mxPoint x="690" y="730" as="targetPoint" />
          </mxGeometry>
        </mxCell>
        <mxCell id="PYriCE-h4d1kvKqQUaSR-15" value="" style="endArrow=classicThin;startArrow=classicThin;html=1;rounded=0;startFill=1;endFill=1;" parent="1" edge="1">
          <mxGeometry width="50" height="50" relative="1" as="geometry">
            <mxPoint x="660" y="800" as="sourcePoint" />
            <mxPoint x="660" y="700" as="targetPoint" />
          </mxGeometry>
        </mxCell>
        <mxCell id="PYriCE-h4d1kvKqQUaSR-16" value="t&lt;sub&gt;prop&lt;/sub&gt;" style="text;html=1;align=center;verticalAlign=middle;whiteSpace=wrap;rounded=0;" parent="1" vertex="1">
          <mxGeometry x="650" y="630" width="60" height="30" as="geometry" />
        </mxCell>
        <mxCell id="PYriCE-h4d1kvKqQUaSR-17" value="" style="endArrow=classicThin;startArrow=classicThin;html=1;rounded=0;startFill=1;endFill=1;" parent="1" edge="1">
          <mxGeometry width="50" height="50" relative="1" as="geometry">
            <mxPoint x="660" y="699" as="sourcePoint" />
            <mxPoint x="660" y="660" as="targetPoint" />
          </mxGeometry>
        </mxCell>
        <mxCell id="PYriCE-h4d1kvKqQUaSR-18" value="t&lt;sub&gt;replyB&lt;/sub&gt;" style="text;html=1;align=center;verticalAlign=middle;whiteSpace=wrap;rounded=0;" parent="1" vertex="1">
          <mxGeometry x="650" y="666" width="60" height="30" as="geometry" />
        </mxCell>
        <mxCell id="PYriCE-h4d1kvKqQUaSR-19" value="" style="endArrow=classicThin;startArrow=classicThin;html=1;rounded=0;startFill=1;endFill=1;" parent="1" edge="1">
          <mxGeometry width="50" height="50" relative="1" as="geometry">
            <mxPoint x="380" y="730" as="sourcePoint" />
            <mxPoint x="380" y="630" as="targetPoint" />
          </mxGeometry>
        </mxCell>
        <mxCell id="PYriCE-h4d1kvKqQUaSR-20" value="t&lt;sub&gt;roundA&lt;/sub&gt;" style="text;html=1;align=center;verticalAlign=middle;whiteSpace=wrap;rounded=0;" parent="1" vertex="1">
          <mxGeometry x="329" y="667" width="60" height="30" as="geometry" />
        </mxCell>
        <mxCell id="PYriCE-h4d1kvKqQUaSR-22" value="" style="endArrow=classicThin;html=1;rounded=0;endFill=1;" parent="1" edge="1">
          <mxGeometry width="50" height="50" relative="1" as="geometry">
            <mxPoint x="400" y="770" as="sourcePoint" />
            <mxPoint x="640" y="800" as="targetPoint" />
          </mxGeometry>
        </mxCell>
        <mxCell id="-4YV-GFCwSD3uPHcHoKi-3" value="Range" style="edgeLabel;html=1;align=center;verticalAlign=middle;resizable=0;points=[];" parent="PYriCE-h4d1kvKqQUaSR-22" vertex="1" connectable="0">
          <mxGeometry x="-0.1323" y="-1" relative="1" as="geometry">
            <mxPoint x="16" y="1" as="offset" />
          </mxGeometry>
        </mxCell>
        <mxCell id="PYriCE-h4d1kvKqQUaSR-23" value="" style="endArrow=none;dashed=1;html=1;strokeWidth=2;rounded=0;" parent="1" edge="1">
          <mxGeometry width="50" height="50" relative="1" as="geometry">
            <mxPoint x="360" y="800" as="sourcePoint" />
            <mxPoint x="680" y="800" as="targetPoint" />
          </mxGeometry>
        </mxCell>
        <mxCell id="PYriCE-h4d1kvKqQUaSR-26" value="" style="endArrow=classicThin;startArrow=classicThin;html=1;rounded=0;startFill=1;endFill=1;" parent="1" edge="1">
          <mxGeometry width="50" height="50" relative="1" as="geometry">
            <mxPoint x="380" y="768" as="sourcePoint" />
            <mxPoint x="380" y="730" as="targetPoint" />
          </mxGeometry>
        </mxCell>
        <mxCell id="PYriCE-h4d1kvKqQUaSR-27" value="t&lt;sub&gt;replyA&lt;/sub&gt;" style="text;html=1;align=center;verticalAlign=middle;whiteSpace=wrap;rounded=0;" parent="1" vertex="1">
          <mxGeometry x="329" y="732" width="60" height="30" as="geometry" />
        </mxCell>
        <mxCell id="PYriCE-h4d1kvKqQUaSR-28" value="t&lt;sub&gt;prop&lt;/sub&gt;" style="text;html=1;align=center;verticalAlign=middle;whiteSpace=wrap;rounded=0;" parent="1" vertex="1">
          <mxGeometry x="329" y="770" width="60" height="30" as="geometry" />
        </mxCell>
        <mxCell id="PYriCE-h4d1kvKqQUaSR-29" value="" style="endArrow=classicThin;startArrow=classicThin;html=1;rounded=0;startFill=1;endFill=1;" parent="1" edge="1">
          <mxGeometry width="50" height="50" relative="1" as="geometry">
            <mxPoint x="380" y="800" as="sourcePoint" />
            <mxPoint x="380" y="768" as="targetPoint" />
          </mxGeometry>
        </mxCell>
        <mxCell id="PYriCE-h4d1kvKqQUaSR-30" value="" style="endArrow=none;dashed=1;html=1;strokeWidth=2;rounded=0;" parent="1" edge="1">
          <mxGeometry width="50" height="50" relative="1" as="geometry">
            <mxPoint x="360" y="770" as="sourcePoint" />
            <mxPoint x="400" y="770" as="targetPoint" />
          </mxGeometry>
        </mxCell>
        <mxCell id="PYriCE-h4d1kvKqQUaSR-35" value="t&lt;sub&gt;prop&lt;/sub&gt;" style="text;html=1;align=center;verticalAlign=middle;whiteSpace=wrap;rounded=0;" parent="1" vertex="1">
          <mxGeometry x="670" y="702" width="60" height="30" as="geometry" />
        </mxCell>
        <mxCell id="PYriCE-h4d1kvKqQUaSR-36" value="" style="endArrow=classicThin;startArrow=classicThin;html=1;rounded=0;startFill=1;endFill=1;" parent="1" edge="1">
          <mxGeometry width="50" height="50" relative="1" as="geometry">
            <mxPoint x="681" y="730" as="sourcePoint" />
            <mxPoint x="681" y="700" as="targetPoint" />
          </mxGeometry>
        </mxCell>
      </root>
    </mxGraphModel>
  </diagram>
</mxfile>
